<svg width="133" height="67" viewBox="0 0 133 67" fill="none" xmlns="http://www.w3.org/2000/svg">
<path d="M126.533 30.9476C128.605 102.17 145.93 45.1207 110.233 47.8787C74.5368 50.6366 75.3302 36.888 0.314924 21.6349C-1.75766 -49.5871 22.449 -90.2595 58.1456 -93.0174C93.8422 -95.7754 124.46 -40.2743 126.533 30.9476Z" fill="black"/>
<path d="M126.533 30.9476C128.605 102.17 145.93 45.1207 110.233 47.8787C74.5368 50.6366 75.3302 36.888 0.314924 21.6349C-1.75766 -49.5871 22.449 -90.2595 58.1456 -93.0174C93.8422 -95.7754 124.46 -40.2743 126.533 30.9476Z" fill="black"/>
<path d="M126.533 30.9476C128.605 102.17 145.93 45.1207 110.233 47.8787C74.5368 50.6366 75.3302 36.888 0.314924 21.6349C-1.75766 -49.5871 22.449 -90.2595 58.1456 -93.0174C93.8422 -95.7754 124.46 -40.2743 126.533 30.9476Z" fill="black"/>
</svg>
