<svg width="199" height="91" viewBox="0 0 199 91" fill="none" xmlns="http://www.w3.org/2000/svg">
<path d="M137.527 67.0172C85.619 116.063 34.6711 76.6529 11.3128 49.6346C-12.0454 22.6163 1.0312 18.2213 52.9392 -30.8248C104.847 -79.871 165.863 -97.7281 189.221 -70.7098C212.579 -43.6914 189.435 17.971 137.527 67.0172Z" fill="black"/>
<path d="M137.527 67.0172C85.619 116.063 34.6711 76.6529 11.3128 49.6346C-12.0454 22.6163 1.0312 18.2213 52.9392 -30.8248C104.847 -79.871 165.863 -97.7281 189.221 -70.7098C212.579 -43.6914 189.435 17.971 137.527 67.0172Z" fill="black"/>
<path d="M137.527 67.0172C85.619 116.063 34.6711 76.6529 11.3128 49.6346C-12.0454 22.6163 1.0312 18.2213 52.9392 -30.8248C104.847 -79.871 165.863 -97.7281 189.221 -70.7098C212.579 -43.6914 189.435 17.971 137.527 67.0172Z" fill="black"/>
</svg>
